<svg width="25" height="24" viewBox="0 0 25 24" fill="none" xmlns="http://www.w3.org/2000/svg">
<path d="M7.48918 13.876L6.86263 16.215L4.57258 16.2635C3.8882 14.9941 3.5 13.5417 3.5 11.9984C3.5 10.506 3.86295 9.0986 4.50631 7.85938H4.5068L6.54559 8.23316L7.4387 10.2597C7.25177 10.8047 7.14989 11.3897 7.14989 11.9984C7.14996 12.659 7.26963 13.292 7.48918 13.876Z" fill="#FBBB00"/>
<path d="M21.3426 10.3203C21.446 10.8647 21.4999 11.427 21.4999 12.0016C21.4999 12.646 21.4321 13.2745 21.3031 13.8808C20.865 15.9438 19.7202 17.7453 18.1343 19.0201L18.1338 19.0197L15.5659 18.8886L15.2024 16.6198C16.2547 16.0027 17.0771 15.0369 17.5103 13.8808H12.6978V10.3203H17.5805H21.3426Z" fill="#518EF8"/>
<path d="M18.1338 19.0193L18.1343 19.0198C16.592 20.2595 14.6327 21.0012 12.4999 21.0012C9.07251 21.0012 6.09263 19.0855 4.57251 16.2664L7.48911 13.8789C8.24915 15.9074 10.2059 17.3513 12.4999 17.3513C13.486 17.3513 14.4097 17.0848 15.2024 16.6194L18.1338 19.0193Z" fill="#28B446"/>
<path d="M18.2447 5.07197L15.3291 7.45894C14.5087 6.94615 13.539 6.64992 12.5 6.64992C10.1541 6.64992 8.16073 8.16013 7.43877 10.2613L4.50684 7.86098H4.50635C6.00421 4.97307 9.02168 3 12.5 3C14.6838 3 16.686 3.77787 18.2447 5.07197Z" fill="#F14336"/>
</svg>
