<svg width="24" height="23" viewBox="0 0 24 23" fill="none" xmlns="http://www.w3.org/2000/svg">
<path d="M11.5311 0.767255C11.6922 0.331946 12.3078 0.331944 12.4689 0.767253L15.1613 8.04329C15.2119 8.18015 15.3198 8.28806 15.4567 8.3387L22.7327 11.0311C23.1681 11.1922 23.1681 11.8078 22.7327 11.9689L15.4567 14.6613C15.3198 14.7119 15.2119 14.8198 15.1613 14.9567L12.4689 22.2327C12.3078 22.6681 11.6922 22.6681 11.5311 22.2327L8.8387 14.9567C8.78806 14.8198 8.68015 14.7119 8.54329 14.6613L1.26725 11.9689C0.831946 11.8078 0.831944 11.1922 1.26725 11.0311L8.54329 8.3387C8.68015 8.28806 8.78806 8.18015 8.8387 8.04329L11.5311 0.767255Z" fill="#724DBD"/>
</svg>
