<svg width="100" height="101" viewBox="0 0 100 101" fill="none" xmlns="http://www.w3.org/2000/svg">
<path d="M96.4812 50.4987C98.0256 48.7003 99.1078 46.5522 99.6341 44.2408C100.16 41.9295 100.115 39.5246 99.5011 37.2348C98.8875 34.9451 97.7245 32.8396 96.113 31.1011C94.5015 29.3626 92.4902 28.0435 90.2534 27.2583C90.6917 24.9285 90.5549 22.527 89.8548 20.2621C89.1548 17.9972 87.9127 15.9373 86.2363 14.2611C84.5599 12.5849 82.4999 11.3431 80.2349 10.6433C77.9699 9.9436 75.5683 9.80709 73.2386 10.2456C72.454 8.00842 71.1352 5.99652 69.3966 4.38462C67.6581 2.77272 65.5524 1.60954 63.2623 0.996083C60.9722 0.382621 58.567 0.337415 56.2555 0.864389C53.944 1.39136 51.7961 2.47459 49.9982 4.02002C48.1997 2.47565 46.0517 1.3934 43.7403 0.867156C41.4289 0.34091 39.024 0.386562 36.7342 1.00015C34.4445 1.61374 32.339 2.77673 30.6005 4.38824C28.862 5.99975 27.5429 8.0111 26.7577 10.2478C24.4281 9.80996 22.0268 9.94709 19.7622 10.6473C17.4976 11.3475 15.438 12.5897 13.7621 14.266C12.0862 15.9423 10.8446 18.0022 10.1449 20.267C9.44529 22.5318 9.30878 24.9331 9.74722 27.2626C7.51051 28.0478 5.49915 29.3669 3.88765 31.1054C2.27614 32.844 1.11314 34.9494 0.499551 37.2392C-0.114037 39.5289 -0.159696 41.9338 0.36655 44.2452C0.892796 46.5566 1.97507 48.7046 3.51943 50.5031C1.9746 52.3014 0.891994 54.4497 0.365598 56.7613C-0.160798 59.0729 -0.115099 61.4781 0.498757 63.768C1.11261 66.058 2.27606 68.1635 3.88812 69.9019C5.50018 71.6403 7.51216 72.959 9.74939 73.7435C9.31057 76.0731 9.44693 78.4746 10.1466 80.7395C10.8464 83.0044 12.0883 85.0643 13.7646 86.7404C15.441 88.4165 17.501 89.6582 19.766 90.3576C22.0311 91.0571 24.4325 91.1931 26.7621 90.754C27.5473 92.9907 28.8663 95.0021 30.6049 96.6136C32.3434 98.2251 34.4488 99.3881 36.7386 100.002C39.0283 100.615 41.4332 100.661 43.7446 100.135C46.056 99.6084 48.2041 98.5262 50.0025 96.9818C51.8009 98.5266 53.9491 99.6092 56.2607 100.136C58.5724 100.662 60.9775 100.616 63.2675 100.002C65.5574 99.3886 67.663 98.2252 69.4013 96.6131C71.1397 95.001 72.4584 92.9891 73.243 90.7518C75.5726 91.1905 77.9741 91.0541 80.239 90.3544C82.504 89.6546 84.564 88.4127 86.2402 86.7365C87.9165 85.0602 89.1584 83.0003 89.8581 80.7353C90.5579 78.4703 90.6943 76.0688 90.2556 73.7392C92.4925 72.9542 94.504 71.6351 96.1156 69.8965C97.7272 68.1579 98.8901 66.0523 99.5035 63.7624C100.117 61.4725 100.162 59.0675 99.6356 56.7562C99.1089 54.4448 98.0262 52.2968 96.4812 50.4987Z" fill="#18C07A"/>
<path d="M41.0246 69.5863L27.1301 55.7005C26.6028 55.1723 26.3066 54.4565 26.3066 53.7102C26.3066 52.9638 26.6028 52.248 27.1301 51.7198L28.8182 50.0296C29.3464 49.5023 30.0622 49.2061 30.8085 49.2061C31.5549 49.2061 32.2707 49.5023 32.7989 50.0296L42.899 60.1232L66.6855 34.8459C67.1973 34.3028 67.9037 33.985 68.6496 33.9622C69.3956 33.9395 70.12 34.2136 70.664 34.7245L72.3976 36.3606C72.9413 36.8725 73.2595 37.5793 73.2822 38.3258C73.305 39.0722 73.0304 39.7971 72.5189 40.3412L45.0724 69.5234C44.814 69.7988 44.5028 70.0195 44.1574 70.1722C43.812 70.325 43.4394 70.4067 43.0618 70.4126C42.6842 70.4185 42.3092 70.3483 41.9593 70.2064C41.6093 70.0644 41.2914 69.8535 41.0246 69.5863Z" fill="white"/>
</svg>
