<svg width="20" height="20" viewBox="0 0 20 20" fill="none" xmlns="http://www.w3.org/2000/svg">
<path d="M3.28203 6.71778C2.64875 6.71746 2.13547 7.23199 2.13531 7.86481L2.1361 12.6673C2.13603 12.818 2.16566 12.9672 2.22329 13.1064C2.28092 13.2456 2.36542 13.3721 2.47195 13.4787C2.57849 13.5852 2.70498 13.6697 2.84419 13.7274C2.9834 13.785 3.13261 13.8147 3.28328 13.8147C3.43395 13.8148 3.58317 13.7852 3.72239 13.7276C3.86162 13.67 3.9881 13.5855 4.09461 13.479C4.20112 13.3724 4.28556 13.2459 4.34308 13.1066C4.40061 12.9674 4.43009 12.8181 4.42985 12.6675V7.86418C4.42951 7.55999 4.30843 7.26838 4.09321 7.05342C3.87798 6.83846 3.58622 6.71773 3.28203 6.71778ZM12.5309 2.40496L13.3314 0.943244C13.3518 0.906164 13.3567 0.86251 13.3449 0.821855C13.3332 0.7812 13.3058 0.746862 13.2688 0.726369C13.2317 0.706222 13.1881 0.701602 13.1476 0.713524C13.1072 0.725445 13.0731 0.752935 13.0528 0.789963L12.2442 2.26699C11.5639 1.96418 10.8025 1.79449 9.99688 1.79528C9.19344 1.79449 8.43235 1.96371 7.75485 2.26481L6.94531 0.791526C6.93543 0.773135 6.922 0.756889 6.90579 0.743727C6.88959 0.730566 6.87093 0.720751 6.8509 0.71485C6.83088 0.70895 6.80988 0.707082 6.78913 0.709354C6.76837 0.711627 6.74828 0.717994 6.73 0.728088C6.71155 0.73795 6.69525 0.751392 6.68206 0.767628C6.66887 0.783864 6.65904 0.802569 6.65317 0.822647C6.64729 0.842725 6.64547 0.863773 6.64783 0.884561C6.65018 0.905349 6.65666 0.925458 6.66688 0.943713L7.46766 2.40449C5.89422 3.2159 4.8311 4.76121 4.83203 6.53543L15.163 6.53418C15.1633 4.76059 14.102 3.2184 12.5309 2.40496ZM7.64719 4.66387C7.5323 4.66381 7.42214 4.61811 7.34094 4.53682C7.25974 4.45554 7.21416 4.34532 7.21422 4.23043C7.21428 4.11554 7.25998 4.00538 7.34127 3.92418C7.42255 3.84298 7.53277 3.7974 7.64766 3.79746C7.76256 3.79767 7.87271 3.8434 7.95397 3.92463C8.03524 4.00587 8.081 4.11599 8.08125 4.2309C8.08105 4.34586 8.03521 4.45603 7.95382 4.53721C7.87243 4.6184 7.76215 4.66395 7.64719 4.66387ZM12.3513 4.66309C12.2944 4.66313 12.238 4.65196 12.1855 4.63022C12.1329 4.60847 12.0852 4.57659 12.045 4.53638C12.0047 4.49616 11.9728 4.44842 11.9511 4.39587C11.9293 4.34332 11.9181 4.287 11.9181 4.23012C11.9187 4.11532 11.9646 4.00539 12.0457 3.92414C12.1268 3.8429 12.2366 3.79688 12.3514 3.79606C12.4661 3.797 12.5758 3.84311 12.6567 3.92439C12.7377 4.00567 12.7833 4.11558 12.7838 4.23028C12.7838 4.2871 12.7727 4.34339 12.751 4.39591C12.7293 4.44843 12.6974 4.49615 12.6572 4.53635C12.6171 4.57655 12.5694 4.60843 12.5169 4.63018C12.4644 4.65193 12.4081 4.66311 12.3513 4.66309ZM4.87422 6.93449L4.87594 14.3775C4.87571 14.5382 4.90721 14.6975 4.96863 14.846C5.03006 14.9946 5.12019 15.1296 5.23387 15.2432C5.34756 15.3569 5.48255 15.447 5.63112 15.5084C5.7797 15.5698 5.93893 15.6013 6.09969 15.6011L6.93297 15.6014L6.93391 18.1426C6.93375 18.7754 7.44813 19.2898 8.08 19.2898C8.71375 19.2898 9.22719 18.775 9.22735 18.1418L9.22672 15.6012L10.775 15.6007L10.7756 18.1418C10.7756 18.7742 11.2902 19.2897 11.9222 19.2884C12.5559 19.2889 13.0697 18.774 13.0695 18.1409L13.0688 15.6004L13.905 15.5998C14.0658 15.5998 14.225 15.5682 14.3735 15.5067C14.522 15.4452 14.657 15.355 14.7707 15.2414C14.8844 15.1277 14.9746 14.9927 15.0361 14.8442C15.0977 14.6957 15.1294 14.5365 15.1294 14.3757L15.128 6.93278L4.87422 6.93449ZM17.8639 7.86309C17.8639 7.71248 17.8342 7.56335 17.7765 7.42421C17.7189 7.28507 17.6344 7.15865 17.5279 7.05217C17.4214 6.94569 17.2949 6.86123 17.1558 6.80361C17.0166 6.74599 16.8675 6.71635 16.7169 6.71637C16.0836 6.71574 15.5705 7.22996 15.5705 7.86356L15.5714 12.6664C15.5713 12.817 15.6009 12.9661 15.6585 13.1053C15.7161 13.2445 15.8005 13.3709 15.907 13.4775C16.0135 13.584 16.14 13.6684 16.2792 13.726C16.4183 13.7836 16.5675 13.8132 16.7181 13.8131C16.8688 13.8131 17.0179 13.7834 17.1571 13.7258C17.2963 13.6681 17.4227 13.5836 17.5292 13.477C17.6357 13.3705 17.7201 13.244 17.7777 13.1048C17.8352 12.9656 17.8648 12.8164 17.8647 12.6657L17.8639 7.86309Z" fill="white"/>
</svg>
