<svg width="20" height="20" viewBox="0 0 20 20" fill="none" xmlns="http://www.w3.org/2000/svg">
<path fill-rule="evenodd" clip-rule="evenodd" d="M12.75 3.19333C13.45 2.34833 13.92 1.17083 13.7917 0C12.785 0.0408333 11.5667 0.670833 10.8458 1.51583C10.1983 2.26417 9.63167 3.46167 9.78501 4.60917C10.9067 4.69667 12.0533 4.03917 12.7517 3.19333M15.2683 10.625C15.2967 13.6517 17.9233 14.6592 17.9517 14.6725C17.9308 14.7433 17.5333 16.1075 16.5683 17.5167C15.735 18.735 14.87 19.9492 13.5067 19.9742C12.1675 19.9983 11.7375 19.18 10.2058 19.18C8.67584 19.18 8.19751 19.9492 6.92917 19.9983C5.61417 20.0483 4.61251 18.6808 3.77084 17.4675C2.05417 14.9842 0.741674 10.4508 2.50417 7.39083C3.37834 5.87083 4.94334 4.90833 6.64167 4.88417C7.93334 4.85917 9.15251 5.75333 9.94167 5.75333C10.7308 5.75333 12.2133 4.67833 13.7708 4.83583C14.4233 4.86333 16.2533 5.09917 17.4292 6.82C17.3342 6.87833 15.245 8.095 15.2675 10.625" fill="white"/>
</svg>
