<svg width="20" height="20" viewBox="0 0 20 20" fill="none" xmlns="http://www.w3.org/2000/svg">
<path d="M6.77083 5.91L8.94417 3.01833C9.07639 2.83944 9.23361 2.70833 9.41583 2.625C9.59806 2.54167 9.79278 2.5 10 2.5C10.2072 2.5 10.4019 2.54167 10.5842 2.625C10.7664 2.70833 10.9236 2.83917 11.0558 3.0175L13.2292 5.91L16.5792 7.05C16.8758 7.15 17.1042 7.31806 17.2642 7.55417C17.4247 7.79083 17.505 8.05194 17.505 8.3375C17.505 8.46917 17.4856 8.6 17.4467 8.73C17.4078 8.86 17.3444 8.98472 17.2567 9.10417L15.0608 12.0817L15.1442 15.2733C15.1581 15.6656 15.0286 15.9958 14.7558 16.2642C14.4831 16.5325 14.1656 16.6667 13.8033 16.6667L13.425 16.62L10 15.6108L6.575 16.62C6.50611 16.6478 6.43944 16.6625 6.375 16.6642C6.31 16.6658 6.25056 16.6667 6.19667 16.6667C5.82722 16.6667 5.50778 16.5325 5.23833 16.2642C4.96889 15.9958 4.84139 15.6658 4.85583 15.2742L4.93917 12.0608L2.74833 9.10417C2.66 8.98361 2.59639 8.85778 2.5575 8.72667C2.51917 8.59556 2.5 8.46444 2.5 8.33333C2.5 8.05222 2.5825 7.79056 2.7475 7.54833C2.91194 7.30667 3.14194 7.135 3.4375 7.03333L6.77083 5.91Z" fill="#EEA956"/>
</svg>
