<svg width="20" height="20" viewBox="0 0 20 20" fill="none" xmlns="http://www.w3.org/2000/svg">
<path d="M10 18.5404C12.2174 18.5404 14.015 14.7161 14.015 9.9987C14.015 5.28127 12.2174 1.45703 10 1.45703C7.78258 1.45703 5.985 5.28127 5.985 9.9987C5.985 14.7161 7.78258 18.5404 10 18.5404Z" stroke="white" stroke-width="0.8" stroke-linecap="round" stroke-linejoin="round"/>
<path d="M12.0075 6.52233C16.0929 8.88067 18.5062 12.3498 17.3975 14.2702C16.2887 16.1907 12.0779 15.8353 7.9925 13.4765C3.90708 11.1178 1.49416 7.64942 2.60291 5.72858C3.04625 4.96067 3.98541 4.55692 5.21416 4.49942C7.05875 4.41275 9.55583 5.1065 12.0075 6.52233Z" stroke="white" stroke-width="0.8" stroke-linecap="round" stroke-linejoin="round"/>
<path d="M8.5125 8.85418H11.4875M8.0475 9.99959H11.9525M9.14208 11.145H10.8579M12.0075 13.4767C7.92208 15.8354 3.71166 16.1908 2.60291 14.2704C1.49416 12.35 3.90708 8.88126 7.9925 6.52251C10.3517 5.16001 12.7525 4.46626 14.5737 4.49293C15.9062 4.51209 16.9287 4.91709 17.3975 5.72876C18.5058 7.64918 16.0933 11.1179 12.0075 13.4767Z" stroke="white" stroke-width="0.8" stroke-linecap="round" stroke-linejoin="round"/>
</svg>
