<svg width="24" height="24" viewBox="0 0 24 24" fill="none" xmlns="http://www.w3.org/2000/svg">
<path d="M10.5 4.49922C10.5 3.624 10.1523 2.78464 9.53347 2.16577C8.9146 1.5469 8.07523 1.19922 7.20001 1.19922C6.3248 1.19922 5.48543 1.5469 4.86656 2.16577C4.24769 2.78464 3.90001 3.624 3.90001 4.49922C3.90001 5.37443 4.24769 6.2138 4.86656 6.83267C5.48543 7.45154 6.3248 7.79922 7.20001 7.79922C8.07523 7.79922 8.9146 7.45154 9.53347 6.83267C10.1523 6.2138 10.5 5.37443 10.5 4.49922ZM5.10001 4.49922C5.10001 4.22344 5.15433 3.95037 5.25987 3.69558C5.3654 3.4408 5.52009 3.2093 5.71509 3.01429C5.91009 2.81929 6.14159 2.66461 6.39638 2.55907C6.65116 2.45354 6.92424 2.39922 7.20001 2.39922C7.47579 2.39922 7.74886 2.45354 8.00365 2.55907C8.25843 2.66461 8.48993 2.81929 8.68494 3.01429C8.87994 3.2093 9.03463 3.4408 9.14016 3.69558C9.24569 3.95037 9.30001 4.22344 9.30001 4.49922C9.30001 5.05617 9.07876 5.59032 8.68494 5.98414C8.29111 6.37797 7.75697 6.59922 7.20001 6.59922C6.64306 6.59922 6.10891 6.37797 5.71509 5.98414C5.32126 5.59032 5.10001 5.05617 5.10001 4.49922ZM3.00001 8.99922H8.01961C7.82281 9.37122 7.67641 9.77442 7.59001 10.1992H3.00001C2.84088 10.1992 2.68827 10.2624 2.57575 10.375C2.46323 10.4875 2.40001 10.6401 2.40001 10.7992V11.3992C2.40001 12.9112 3.71881 14.536 6.11521 14.9152C5.72881 15.1792 5.40721 15.5308 5.17801 15.94C2.64601 15.2548 1.20001 13.3036 1.20001 11.3992V10.7992C1.20001 10.3218 1.38965 9.86399 1.72722 9.52643C2.06479 9.18886 2.52262 8.99922 3.00001 8.99922ZM9.45481 8.99922C10.0596 8.26722 10.9752 7.79922 12 7.79922C12.7187 7.79797 13.418 8.03185 13.9913 8.46518C14.5646 8.89851 14.9804 9.5075 15.1752 10.1992C15.3489 10.8166 15.3391 11.4712 15.147 12.0831C14.955 12.6951 14.5889 13.2379 14.0936 13.6453C13.5983 14.0527 12.9951 14.3071 12.3576 14.3775C11.7201 14.4479 11.0759 14.3312 10.5036 14.0416C10.063 13.8174 9.67839 13.497 9.37822 13.1041C9.07806 12.7112 8.87001 12.256 8.76944 11.7719C8.66887 11.2878 8.67835 10.7873 8.79719 10.3074C8.91603 9.82751 9.13998 9.38043 9.45481 8.99922ZM10.104 10.1992C9.98582 10.4485 9.91789 10.7187 9.90411 10.9942C9.89032 11.2698 9.93093 11.5453 10.0236 11.8052C10.2109 12.33 10.5989 12.7589 11.1024 12.9976C11.6059 13.2363 12.1836 13.2652 12.7084 13.078C13.2332 12.8908 13.6621 12.5027 13.9008 11.9992C14.1395 11.4956 14.1684 10.9177 13.981 10.3928C13.7937 9.86791 13.4055 9.43891 12.9018 9.20022C12.3982 8.96152 11.8203 8.93268 11.2954 9.12003C10.7705 9.30738 10.3415 9.69557 10.1028 10.1992M18.822 15.94C18.5939 15.5303 18.2729 15.1797 17.8848 14.9164C20.28 14.536 21.6 12.91 21.6 11.3992V10.7992C21.6 10.6401 21.5368 10.4875 21.4243 10.375C21.3118 10.2624 21.1591 10.1992 21 10.1992H16.41C16.3256 9.7807 16.1814 9.37654 15.9816 8.99922H21C21.4774 8.99922 21.9352 9.18886 22.2728 9.52643C22.6104 9.86399 22.8 10.3218 22.8 10.7992V11.3992C22.8 13.3036 21.3528 15.2536 18.822 15.94ZM17.3844 16.0444C17.0565 15.7576 16.6357 15.5994 16.2 15.5992H7.80001C7.56346 15.5986 7.32911 15.6447 7.11043 15.7349C6.89176 15.8252 6.69308 15.9577 6.52581 16.125C6.35854 16.2923 6.22597 16.491 6.13574 16.7096C6.04551 16.9283 5.99938 17.1627 6.00001 17.3992V17.9992C6.00001 20.3644 8.23201 22.7992 12 22.7992C15.768 22.7992 18 20.3644 18 17.9992V17.3992C18 16.8592 17.7624 16.3744 17.3844 16.0432M7.20001 17.3992C7.20001 17.2401 7.26323 17.0875 7.37575 16.975C7.48827 16.8624 7.64088 16.7992 7.80001 16.7992H16.2C16.3591 16.7992 16.5118 16.8624 16.6243 16.975C16.7368 17.0875 16.8 17.2401 16.8 17.3992V17.9992C16.8 19.7248 15.0816 21.5992 12 21.5992C8.91841 21.5992 7.20001 19.7248 7.20001 17.9992V17.3992ZM16.8 1.19922C17.6752 1.19922 18.5146 1.5469 19.1335 2.16577C19.7523 2.78464 20.1 3.624 20.1 4.49922C20.1 5.37443 19.7523 6.2138 19.1335 6.83267C18.5146 7.45154 17.6752 7.79922 16.8 7.79922C15.9248 7.79922 15.0854 7.45154 14.4666 6.83267C13.8477 6.2138 13.5 5.37443 13.5 4.49922C13.5 3.624 13.8477 2.78464 14.4666 2.16577C15.0854 1.5469 15.9248 1.19922 16.8 1.19922ZM16.8 2.39922C16.2431 2.39922 15.7089 2.62047 15.3151 3.01429C14.9213 3.40812 14.7 3.94226 14.7 4.49922C14.7 5.05617 14.9213 5.59032 15.3151 5.98414C15.7089 6.37797 16.2431 6.59922 16.8 6.59922C17.357 6.59922 17.8911 6.37797 18.2849 5.98414C18.6788 5.59032 18.9 5.05617 18.9 4.49922C18.9 3.94226 18.6788 3.40812 18.2849 3.01429C17.8911 2.62047 17.357 2.39922 16.8 2.39922Z" fill="#FF6934"/>
</svg>
