<svg width="20" height="21" viewBox="0 0 20 21" fill="none" xmlns="http://www.w3.org/2000/svg">
<path fill-rule="evenodd" clip-rule="evenodd" d="M1.172 1.73031C-1.19209e-07 2.90131 0 4.78731 0 8.55831V12.5583C0 16.3293 -1.19209e-07 18.2153 1.172 19.3863C2.344 20.5573 4.229 20.5583 8 20.5583H12C15.771 20.5583 17.657 20.5583 18.828 19.3863C19.999 18.2143 20 16.3293 20 12.5583V8.55831C20 5.71831 20 3.94831 19.5 2.74731V15.5583C19.0246 15.5584 18.5538 15.4648 18.1146 15.2829C17.6753 15.1011 17.2762 14.8344 16.94 14.4983L16.188 13.7463C15.466 13.0243 15.106 12.6643 14.697 12.5123C14.2474 12.3451 13.7526 12.3451 13.303 12.5123C12.894 12.6643 12.533 13.0243 11.813 13.7463L11.699 13.8593C11.114 14.4443 10.821 14.7373 10.51 14.7913C10.2685 14.8339 10.0197 14.7862 9.811 14.6573C9.543 14.4913 9.38 14.1103 9.053 13.3493L9 13.2253C8.25 11.4753 7.876 10.6013 7.222 10.2733C6.89266 10.1082 6.52411 10.0373 6.157 10.0683C5.428 10.1303 4.756 10.8033 3.41 12.1483L1.5 14.0583V1.44531C1.384 1.53131 1.27467 1.62631 1.172 1.73031Z" fill="white"/>
<path d="M1 8.55859C1 6.64459 1.002 5.30959 1.138 4.30259C1.269 3.32459 1.51 2.80659 1.878 2.43759C2.248 2.06759 2.766 1.82759 3.744 1.69659C4.751 1.56059 6.086 1.55859 8 1.55859H12C13.914 1.55859 15.249 1.56059 16.256 1.69659C17.234 1.82759 17.752 2.06859 18.121 2.43659C18.491 2.80659 18.731 3.32459 18.863 4.30259C18.998 5.30959 19 6.64459 19 8.55859V12.5586C19 14.4726 18.998 15.8076 18.863 16.8146C18.731 17.7926 18.49 18.3106 18.121 18.6796C17.752 19.0496 17.234 19.2896 16.256 19.4216C15.249 19.5566 13.914 19.5586 12 19.5586H8C6.086 19.5586 4.751 19.5566 3.744 19.4216C2.766 19.2896 2.248 19.0486 1.879 18.6796C1.509 18.3106 1.269 17.7926 1.138 16.8146C1.002 15.8076 1 14.4726 1 12.5586V8.55859Z" stroke="white" stroke-width="2"/>
<path d="M13 9.55859C14.1046 9.55859 15 8.66316 15 7.55859C15 6.45402 14.1046 5.55859 13 5.55859C11.8954 5.55859 11 6.45402 11 7.55859C11 8.66316 11.8954 9.55859 13 9.55859Z" fill="white"/>
</svg>
