<svg width="20" height="20" viewBox="0 0 20 20" fill="none" xmlns="http://www.w3.org/2000/svg">
<path d="M10 9.58464C9.44749 9.58464 8.91758 9.36514 8.52688 8.97444C8.13618 8.58374 7.91669 8.05384 7.91669 7.5013C7.91669 6.94877 8.13618 6.41886 8.52688 6.02816C8.91758 5.63746 9.44749 5.41797 10 5.41797C10.5526 5.41797 11.0825 5.63746 11.4732 6.02816C11.8639 6.41886 12.0834 6.94877 12.0834 7.5013C12.0834 7.77489 12.0295 8.0458 11.9248 8.29856C11.8201 8.55132 11.6666 8.78099 11.4732 8.97444C11.2797 9.1679 11.05 9.32135 10.7973 9.42605C10.5445 9.53075 10.2736 9.58464 10 9.58464ZM10 1.66797C8.45292 1.66797 6.96919 2.28255 5.87523 3.37651C4.78127 4.47047 4.16669 5.95421 4.16669 7.5013C4.16669 11.8763 10 18.3346 10 18.3346C10 18.3346 15.8334 11.8763 15.8334 7.5013C15.8334 5.95421 15.2188 4.47047 14.1248 3.37651C13.0308 2.28255 11.5471 1.66797 10 1.66797Z" fill="white"/>
</svg>
