<svg width="20" height="20" viewBox="0 0 20 20" fill="none" xmlns="http://www.w3.org/2000/svg">
<path d="M18.75 5.87539V5.00039C17.258 3.49856 15.2593 2.60752 13.145 2.50164C12.5593 2.43165 11.9654 2.50872 11.4169 2.72587C10.8685 2.94302 10.3828 3.29342 10.0037 3.74539C9.61248 3.30797 9.12461 2.96781 8.57889 2.75191C8.03317 2.536 7.44463 2.45031 6.86 2.50164C4.74394 2.60629 2.74324 3.49743 1.25 5.00039V5.87539L0 6.25039V18.7504L8.375 17.0004L8.75 17.5004H11.25L11.625 17.0004L20 18.7504V6.25039L18.75 5.87539ZM6.85 14.1379C5.31492 14.1788 3.80866 14.5641 2.4425 15.2654L2.5 5.52539C3.64388 4.44541 5.13942 3.81505 6.71125 3.75039C7.67042 3.80978 8.59889 4.11124 9.41 4.62664L9.38625 14.4629C8.55879 14.2225 7.69878 14.1133 6.8375 14.1391L6.85 14.1379ZM17.5 15.2379C16.1551 14.5527 14.6739 14.1768 13.165 14.1379L12.9638 14.1354C12.1388 14.1354 11.3425 14.2554 10.59 14.4779L10.6488 4.60039C11.4383 4.10474 12.3386 3.81309 13.2687 3.75164C14.8483 3.81191 16.3523 4.44353 17.5013 5.52914L17.4975 15.2391L17.5 15.2379Z" fill="white"/>
</svg>
