<svg width="20" height="20" viewBox="0 0 20 20" fill="none" xmlns="http://www.w3.org/2000/svg">
<path d="M8.83333 13.3333C8.83333 12.2083 8.93416 11.3994 9.13583 10.9067C9.33749 10.4139 9.76444 9.87556 10.4167 9.29167C10.9861 8.79167 11.4203 8.35778 11.7192 7.99C12.018 7.62222 12.1672 7.20194 12.1667 6.72917C12.1667 6.15972 11.9758 5.6875 11.5942 5.3125C11.2125 4.9375 10.6811 4.75 9.99999 4.75C9.29166 4.75 8.75361 4.96528 8.38583 5.39583C8.01805 5.82639 7.75749 6.26389 7.60416 6.70833L5.45833 5.79167C5.74999 4.90278 6.28472 4.13194 7.06249 3.47917C7.84027 2.82639 8.81944 2.5 9.99999 2.5C11.4583 2.5 12.58 2.90639 13.365 3.71917C14.15 4.53194 14.5422 5.5075 14.5417 6.64583C14.5417 7.34028 14.3925 7.93417 14.0942 8.4275C13.7958 8.92083 13.3269 9.47972 12.6875 10.1042C12.0069 10.7569 11.5939 11.2536 11.4483 11.5942C11.3028 11.9347 11.2297 12.5144 11.2292 13.3333H8.83333ZM9.99999 18.3333C9.54166 18.3333 9.14944 18.1703 8.82333 17.8442C8.49722 17.5181 8.33388 17.1256 8.33333 16.6667C8.33277 16.2078 8.49611 15.8156 8.82333 15.49C9.15055 15.1644 9.54277 15.0011 9.99999 15C10.4572 14.9989 10.8497 15.1622 11.1775 15.49C11.5053 15.8178 11.6683 16.21 11.6667 16.6667C11.665 17.1233 11.5019 17.5158 11.1775 17.8442C10.853 18.1725 10.4605 18.3356 9.99999 18.3333Z" fill="white"/>
</svg>
