<svg width="20" height="20" viewBox="0 0 20 20" fill="none" xmlns="http://www.w3.org/2000/svg">
<path d="M11.708 14.2506L13.3332 17.5006L14.9832 15.8086L17.5 15.8338L15.1584 11.1838V11.1758M8.292 14.2506L6.6668 17.5006L5.0168 15.8086L2.5 15.8338L4.8416 11.1838V11.1758" stroke="white" stroke-width="0.8" stroke-linecap="round" stroke-linejoin="round"/>
<path d="M16.0668 8.33432C16.0668 8.96792 15.5084 9.50112 15.3248 10.0679C15.1416 10.6343 15.2668 11.4095 14.9084 11.9011C14.55 12.3927 13.7832 12.5011 13.3332 12.8679C12.8832 13.2347 12.5 13.9179 11.9168 14.1095C11.3332 14.3011 10.6748 13.9343 10.0416 13.9343C9.4084 13.9343 8.7336 14.2927 8.1668 14.1095C7.6 13.9259 7.2416 13.2175 6.75 12.8679C6.258 12.5179 5.4916 12.3927 5.1332 11.9011C4.7748 11.4091 4.9084 10.6511 4.7168 10.0679C4.5248 9.48432 3.9332 8.96792 3.9332 8.33432C3.9332 7.70072 4.4916 7.16792 4.6748 6.60112C4.858 6.03432 4.7332 5.25952 5.0916 4.76792C5.45 4.27632 6.2168 4.16792 6.7084 3.80112C7.2 3.43432 7.5 2.75112 8.1248 2.55952C8.75 2.36752 9.3668 2.73432 10 2.73432C10.6332 2.73432 11.308 2.37592 11.8752 2.55952C12.4416 2.74272 12.8 3.45112 13.3332 3.80112C13.8664 4.15112 14.5916 4.27592 14.95 4.76792C15.3084 5.25992 15.1752 6.01792 15.3668 6.60112C15.5584 7.18432 16.0668 7.70112 16.0668 8.33432ZM10 5.83432C9.3369 5.83432 8.70097 6.09773 8.23209 6.56661C7.76321 7.03549 7.4998 7.67142 7.4998 8.33452C7.4998 8.99761 7.76321 9.63355 8.23209 10.1024C8.70097 10.5713 9.3369 10.8347 10 10.8347C10.663 10.8347 11.2989 10.5713 11.7678 10.1025C12.2366 9.63364 12.5 8.99776 12.5 8.33472C12.5 7.67168 12.2366 7.03579 11.7678 6.56695C11.2989 6.09811 10.663 5.83432 10 5.83432Z" stroke="white" stroke-width="0.8" stroke-linecap="round" stroke-linejoin="round"/>
</svg>
