<svg width="29" height="28" viewBox="0 0 29 28" fill="none" xmlns="http://www.w3.org/2000/svg">
<path d="M13.9167 23.3346H4.58337C4.11925 23.3346 3.67413 23.1503 3.34594 22.8221C3.01775 22.4939 2.83337 22.0488 2.83337 21.5846V6.41797C2.83337 5.95384 3.01775 5.50872 3.34594 5.18053C3.67413 4.85234 4.11925 4.66797 4.58337 4.66797H24.4167C24.8808 4.66797 25.326 4.85234 25.6541 5.18053C25.9823 5.50872 26.1667 5.95384 26.1667 6.41797V15.0991" stroke="#FF6934" stroke-width="1.66667" stroke-linecap="round" stroke-linejoin="round"/>
<path d="M2.83337 6.41797C2.83337 5.95384 3.01775 5.50872 3.34594 5.18053C3.67413 4.85234 4.11925 4.66797 4.58337 4.66797H24.4167C24.8808 4.66797 25.326 4.85234 25.6541 5.18053C25.9823 5.50872 26.1667 5.95384 26.1667 6.41797V11.668H2.83337V6.41797Z" stroke="#FF6934" stroke-width="1.66667"/>
<path d="M20.3333 19.25L18 21.5833L20.3333 23.9167M23.8333 19.25L26.1667 21.5833L23.8333 23.9167" stroke="#FF6934" stroke-width="1.66667" stroke-linecap="round" stroke-linejoin="round"/>
<path d="M5.16667 8.16927C5.16667 7.52494 5.689 7.0026 6.33333 7.0026C6.97767 7.0026 7.5 7.52494 7.5 8.16927C7.5 8.8136 6.97767 9.33594 6.33333 9.33594C5.689 9.33594 5.16667 8.8136 5.16667 8.16927Z" fill="#FF6934"/>
<path d="M8.66667 8.16927C8.66667 7.52494 9.189 7.0026 9.83333 7.0026C10.4777 7.0026 11 7.52494 11 8.16927C11 8.8136 10.4777 9.33594 9.83333 9.33594C9.189 9.33594 8.66667 8.8136 8.66667 8.16927Z" fill="#FF6934"/>
</svg>
