<svg width="24" height="24" viewBox="0 0 24 24" fill="none" xmlns="http://www.w3.org/2000/svg">
<path d="M21.8427 6.218C21.7427 5.98356 21.5988 5.7704 21.4187 5.59C21.2329 5.40307 21.012 5.25471 20.7686 5.15346C20.5253 5.05221 20.2643 5.00005 20.0007 5H8.00075C7.70375 5 7.42275 5.132 7.23175 5.359L2.23175 11.359C1.92275 11.73 1.92275 12.269 2.23175 12.64L7.23175 18.64C7.42275 18.868 7.70375 19 8.00075 19H20.0007C20.2626 19.001 20.522 18.9501 20.764 18.8502C21.0061 18.7503 21.2259 18.6034 21.4107 18.418C21.5977 18.2322 21.746 18.0112 21.8473 17.7679C21.9485 17.5245 22.0007 17.2636 22.0007 17V7C22.0007 6.73467 21.9481 6.474 21.8427 6.218ZM17.7078 14.293L16.2937 15.707L14.0007 13.414L11.7077 15.707L10.2937 14.293L12.5868 12L10.2937 9.707L11.7077 8.293L14.0007 10.586L16.2937 8.293L17.7078 9.707L15.4147 12L17.7078 14.293Z" fill="white" fill-opacity="0.8"/>
</svg>
