<svg width="20" height="20" viewBox="0 0 20 20" fill="none" xmlns="http://www.w3.org/2000/svg">
<path d="M5.57124 15.3139L8.23186 12.6533L7.34811 11.7695L4.68749 14.4302L4.19186 13.9345C4.07466 13.8174 3.91572 13.7515 3.74999 13.7515C3.58426 13.7515 3.42532 13.8174 3.30811 13.9345L0.808114 16.4345C0.690944 16.5517 0.625122 16.7107 0.625122 16.8764C0.625122 17.0421 0.690944 17.2011 0.808114 17.3183L2.68311 19.1933C2.80032 19.3105 2.95926 19.3763 3.12499 19.3763C3.29072 19.3763 3.44966 19.3105 3.56686 19.1933L6.06686 16.6933C6.18403 16.5761 6.24986 16.4171 6.24986 16.2514C6.24986 16.0857 6.18403 15.9267 6.06686 15.8095L5.57124 15.3139ZM3.12499 17.8677L2.13374 16.8764L3.74999 15.2602L4.74124 16.2514L3.12499 17.8677Z" fill="white"/>
<path d="M15 18.7503C14.0058 18.7491 13.0526 18.3536 12.3496 17.6506C11.6466 16.9476 11.2511 15.9945 11.25 15.0003C11.25 14.6735 11.2941 14.3483 11.3812 14.0334L5.96749 8.61901C5.65209 8.70473 5.32683 8.74886 4.99999 8.75026C4.38901 8.7527 3.78676 8.60522 3.24604 8.32074C2.70532 8.03626 2.24264 7.62348 1.89858 7.11858C1.55451 6.61368 1.33956 6.03208 1.27258 5.42478C1.20559 4.81747 1.28861 4.20301 1.51436 3.63526L1.86311 2.74713L3.93311 4.81713C4.05209 4.9309 4.21037 4.9944 4.37499 4.9944C4.53961 4.9944 4.69788 4.9309 4.81686 4.81713C4.93403 4.69993 4.99986 4.54098 4.99986 4.37526C4.99986 4.20953 4.93403 4.05059 4.81686 3.93338L2.74561 1.86213L3.63499 1.51401C4.2028 1.2884 4.81727 1.2055 5.42456 1.27259C6.03186 1.33967 6.61342 1.55469 7.11829 1.8988C7.62316 2.24291 8.03592 2.7056 8.3204 3.24631C8.60488 3.78703 8.75238 4.38928 8.74999 5.00026C8.75001 5.32699 8.70586 5.65223 8.61874 5.96713L14.0331 11.3815C14.3483 11.2958 14.6734 11.2517 15 11.2503C15.611 11.2478 16.2132 11.3953 16.7539 11.6798C17.2947 11.9643 17.7573 12.377 18.1014 12.8819C18.4455 13.3868 18.6604 13.9684 18.7274 14.5757C18.7944 15.183 18.7114 15.7975 18.4856 16.3653L18.1375 17.2534L16.0669 15.1834C15.9479 15.0698 15.7898 15.0064 15.6253 15.0064C15.4608 15.0064 15.3027 15.0698 15.1837 15.1834C15.0665 15.3005 15.0006 15.4594 15.0004 15.6251C15.0003 15.7909 15.066 15.9498 15.1831 16.0671L17.2537 18.1378L16.365 18.4865C15.9304 18.6587 15.4675 18.7482 15 18.7503ZM6.28936 7.17276L12.8269 13.7115L12.6775 14.0921C12.5311 14.4581 12.4739 14.8536 12.5106 15.246C12.5472 15.6384 12.6767 16.0164 12.8884 16.3489C13.1 16.6814 13.3877 16.9588 13.7277 17.1581C14.0677 17.3574 14.4502 17.473 14.8437 17.4953L14.2994 16.9515C14.1252 16.7774 13.9871 16.5707 13.8928 16.3432C13.7986 16.1157 13.7501 15.8718 13.7501 15.6256C13.7501 15.3793 13.7986 15.1355 13.8928 14.908C13.9871 14.6805 14.1252 14.4737 14.2994 14.2996C14.6564 13.9583 15.1313 13.7678 15.6253 13.7678C16.1193 13.7678 16.5942 13.9583 16.9512 14.2996L17.495 14.844C17.4726 14.4505 17.357 14.0679 17.1576 13.728C16.9582 13.388 16.6808 13.1003 16.3482 12.8886C16.0157 12.677 15.6376 12.5475 15.2452 12.5109C14.8527 12.4742 14.4572 12.5314 14.0912 12.6778L13.7106 12.8271L7.17311 6.28963L7.32311 5.90838C7.46936 5.5424 7.52646 5.14688 7.4897 4.75447C7.45293 4.36207 7.32336 3.98404 7.11168 3.65159C6.9 3.31914 6.61228 3.0418 6.27227 2.84248C5.93227 2.64316 5.54973 2.52757 5.15624 2.50526L5.69999 3.04901C5.87413 3.22312 6.01227 3.42983 6.10652 3.65734C6.20077 3.88485 6.24928 4.12869 6.24928 4.37494C6.24928 4.6212 6.20077 4.86504 6.10652 5.09255C6.01227 5.32006 5.87413 5.52677 5.69999 5.70088C5.34295 6.04223 4.86801 6.23273 4.37405 6.23273C3.88009 6.23273 3.40516 6.04223 3.04811 5.70088L2.50436 5.15651C2.52664 5.55 2.64221 5.93254 2.84154 6.27255C3.04086 6.61255 3.31822 6.90025 3.65069 7.11189C3.98317 7.32353 4.36123 7.45303 4.75364 7.48969C5.14605 7.52636 5.54156 7.46914 5.90749 7.32276L6.28936 7.17276Z" fill="white"/>
<path d="M18.2019 1.78185C17.8448 1.4405 17.3699 1.25 16.8759 1.25C16.382 1.25 15.907 1.4405 15.55 1.78185L10.875 6.45685L11.7587 7.3406L16.4338 2.6656C16.5528 2.55197 16.7111 2.48858 16.8756 2.48858C17.0402 2.48858 17.1984 2.55197 17.3175 2.6656C17.4347 2.7828 17.5005 2.94175 17.5005 3.10748C17.5005 3.2732 17.4347 3.43215 17.3175 3.54935L12.6425 8.22435L13.5263 9.10873L18.2013 4.43373C18.5525 4.08184 18.7498 3.60497 18.7498 3.10779C18.7498 2.6106 18.5531 2.13373 18.2019 1.78185Z" fill="white"/>
</svg>
