<svg width="20" height="20" viewBox="0 0 20 20" fill="none" xmlns="http://www.w3.org/2000/svg">
<path fill-rule="evenodd" clip-rule="evenodd" d="M10 4.16797C10.221 4.16797 10.433 4.25577 10.5893 4.41205C10.7455 4.56833 10.8333 4.78029 10.8333 5.0013V12.5013C10.8333 12.7223 10.7455 12.9343 10.5893 13.0906C10.433 13.2468 10.221 13.3346 10 13.3346C9.77899 13.3346 9.56703 13.2468 9.41075 13.0906C9.25447 12.9343 9.16667 12.7223 9.16667 12.5013V5.0013C9.16667 4.78029 9.25447 4.56833 9.41075 4.41205C9.56703 4.25577 9.77899 4.16797 10 4.16797ZM10 15.8346C10.221 15.8346 10.433 15.7468 10.5893 15.5906C10.7455 15.4343 10.8333 15.2223 10.8333 15.0013C10.8333 14.7803 10.7455 14.5683 10.5893 14.412C10.433 14.2558 10.221 14.168 10 14.168C9.77899 14.168 9.56703 14.2558 9.41075 14.412C9.25447 14.5683 9.16667 14.7803 9.16667 15.0013C9.16667 15.2223 9.25447 15.4343 9.41075 15.5906C9.56703 15.7468 9.77899 15.8346 10 15.8346Z" fill="white"/>
</svg>
